<svg id="Layer_1" data-name="Layer 1" xmlns="http://www.w3.org/2000/svg" viewBox="0 0 1769.87 1947.54"><defs><style>.cls-1{fill:#fefefe;}.cls-2{fill:#6bcaf2;}.cls-3{fill:#2767b1;}.cls-4{fill:#fdfdfd;}</style></defs><path class="cls-1" d="M1528.15,506.79q443.17,767.88,885.15,1533.65a67.62,67.62,0,0,1-7.33,1.39c-4.65.3-9.32.48-14,.48-134,.08-268-.09-402,.5-15.73.06-24.93-5.34-32.7-18.84Q1738,1643,1518.08,1262.52,1416.17,1086,1313.77,909.86c-6.5-11.17-6.53-20.26,0-31.47q103.74-178.85,206.8-358.11C1522.86,516.31,1525.06,512.3,1528.15,506.79Z" transform="translate(-643.43 -506.79)"/><path class="cls-2" d="M1001.6,1021.79q.23-29.49.46-59c1-110.8,34.92-210.75,100-300.11,11.54-15.84,25-30.29,38.21-44.88,15-16.57,30.51-32.6,45.84-48.83,2.21-2.33,4.62-4.48,7.41-7.17,4.73,6.8,1.86,12.09-.33,17.46-5.52,13.56-11.69,26.9-16.27,40.77-9.94,30.12-15,61.42-20.28,92.59A673.93,673.93,0,0,0,1146.8,824c-.15,67.46,13.2,132.21,37.85,194.93,23,58.49,50.59,114.5,85.38,166.9q119.42,179.85,238.75,359.77c38.62,58.34,76.68,117,108.35,179.6,34.42,68,61.73,138.77,79.53,212.85,11.53,48,18.85,96.89,17.18,146.49-3.92,116.64-40.7,220.57-120.85,307.35-18.79,20.34-37.7,40.52-60.23,56.87-2.69,2-5.52,3.7-8.36,5.44-.47.29-1.27,0-3.31,0l7.18-30c6.18-6.86,9.37-15.18,11.59-24,5.07-20,10.06-40,15.13-60,7.86-31,14.63-62.32,16.32-94.24,1.27-23.85,0-47.9-1.22-71.81-1.5-30.06-8.25-59.28-17-88-18.15-59.62-45.7-115-76.87-168.73-35.31-60.86-75.78-118.33-116.06-175.92-51.52-73.68-103.64-147-154.68-221s-94.44-152.23-131.15-234.2a916.15,916.15,0,0,1-46.78-130.57C1015.39,1111.83,1007.59,1067,1001.6,1021.79Z" transform="translate(-643.43 -506.79)"/><path class="cls-3" d="M1001.6,1021.79c6,45.21,13.79,90,26,134.08a916.15,916.15,0,0,0,46.78,130.57,1468.07,1468.07,0,0,0,131.15,234.2c51,73.93,103.16,147.3,154.68,221,40.28,57.59,80.75,115.06,116.06,175.92,31.17,53.71,58.72,109.11,76.87,168.73,8.74,28.7,15.49,57.92,17,88,1.19,23.91,2.49,48,1.22,71.81-1.69,31.92-8.46,63.24-16.32,94.24-5.07,20-10.06,40-15.13,60-2.22,8.77-5.41,17.09-11.59,24,1.55-12.51,2.68-25.1,4.75-37.53,6.19-37.26,9.19-74.74,6.55-112.4a371.11,371.11,0,0,0-33-128.93c-24.07-52.78-55.28-101.13-92.16-145.65-30.58-36.91-62.65-72.6-94.23-108.68-56.8-64.9-114.63-128.92-170.34-194.73-58.27-68.85-109-143-147.25-225.12-25-53.78-43.16-109.64-52.14-168.3a458.18,458.18,0,0,1-4.08-102.61c4.5-62,22.76-120.08,52.08-174.77A26,26,0,0,1,1001.6,1021.79Z" transform="translate(-643.43 -506.79)"/><path class="cls-4" d="M1164.21,2041.21H643.43l260.3-451.16C990.79,1740.84,1077.17,1890.47,1164.21,2041.21Z" transform="translate(-643.43 -506.79)"/></svg>